# AST/ASF file generated using VICON BodyLanguage
# -----------------------------------------------
:version 1.10
:name VICON
:units
  mass 1.0
  length 0.45
  angle deg
:documentation
   .ast/.asf automatically generated from VICON data using
   VICON BodyBuilder and BodyLanguage model FoxedUp or BRILLIANT.MOD
:root
   order TX TY TZ RX RY RZ
   axis XYZ
   position 0 0 0  
   orientation 0 0 0 
:bonedata
  begin
     id 1 
     name lhipjoint
     direction 0.722297 -0.617336 0.311742 
     length 2.6635 
     axis 0 0 0  XYZ
  end
  begin
     id 2 
     name lfemur
     direction 0.34202 -0.939693 0  
     length 7.39349  
     axis 0 0 20  XYZ
    dof rx ry rz
    limits (-160.0 20.0)
           (-70.0 70.0)
           (-60.0 70.0)
  end
  begin
     id 3 
     name ltibia
     direction 0.34202 -0.939693 0   
     length 7.36294   
     axis 0 0 20   XYZ
    dof rx
    limits (-10.0 170.0)
  end
  begin
     id 4 
     name lfoot
     direction 0.104879 -0.288152 0.951824   
     length 2.16981   
     axis -90 7.62852e-016 20   XYZ
    dof rx rz
    limits (-45.0 90.0)
           (-70.0 20.0)
  end
  begin
     id 5 
     name ltoes
     direction 1.53586e-011 -4.21895e-011 1   
     length 1.08218   
     axis -90 7.62852e-016 20   XYZ
    dof rx
    limits (-90.0 20.0)
  end
  begin
     id 6 
     name rhipjoint
     direction -0.75102 -0.589393 0.297631   
     length 2.78977  
     axis 0 0 0  XYZ 
  end
  begin
     id 7 
     name rfemur
     direction -0.34202 -0.939693 0   
     length 7.46076   
     axis 0 0 -20   XYZ
    dof rx ry rz
    limits (-160.0 20.0)
           (-70.0 70.0)
           (-70.0 60.0)
  end
  begin
     id 8 
     name rtibia
     direction -0.34202 -0.939693 0   
     length 7.31726   
     axis 0 0 -20   XYZ
    dof rx
    limits (-10.0 170.0)
 end
 begin
     id 9 
     name rfoot
     direction -0.107991 -0.296704 0.948844   
     length 2.09388  
     axis -90 -7.62852e-016 -20   XYZ
    dof rx rz
    limits (-45.0 90.0)
           (-20.0 70.0)
  end
  begin
     id 10 
     name rtoes
     direction -1.53559e-011 -4.21911e-011 1   
     length 1.04433   
     axis -90 -7.62852e-016 -20   XYZ
    dof rx
    limits (-90.0 20.0)
  end
  begin
     id 11 
     name lowerback
     direction 0.0165164 0.98272 0.184358   
     length 1.71896   
     axis 0 0 0   XYZ
    dof rx ry rz
    limits (-20.0 45.0)
           (-30.0 30.0)
           (-30.0 30.0)
  end
  begin
     id 12 
     name upperback
     direction -0.00887249 0.992297 0.123566   
     length 1.71504   
     axis 0 0 0   XYZ
    dof rx ry rz
    limits (-20.0 45.0)
           (-30.0 30.0)
           (-30.0 30.0)
  end
  begin
     id 13 
     name thorax
     direction -0.0157026 0.998908 0.0440032   
     length 1.77022   
     axis 0 0 0   XYZ
    dof rx ry rz
    limits (-20.0 45.0)
           (-30.0 30.0)
           (-30.0 30.0)
  end
  begin
     id 14 
     name lowerneck
     direction -0.0238856 0.998137 0.0561411   
     length 1.89341   
     axis 0 0 0   XYZ
    dof rx ry rz
    limits (-20.0 45.0)
           (-30.0 30.0)
           (-30.0 30.0)
  end
  begin
     id 15 
     name upperneck
     direction 0.0276574 0.952253 -0.304056   
     length 1.86999   
     axis 0 0 0   XYZ
    dof rx ry rz
    limits (-20.0 45.0)
           (-30.0 30.0)
           (-30.0 30.0)
  end
  begin
     id 16
     name head
     direction 0.00800083 0.994258 -0.106712  
     length 1.91492  
     axis 0 0 0   XYZ
    dof rx ry rz
    limits (-20.0 45.0)
           (-30.0 30.0)
           (-30.0 30.0)
  end
  begin
     id 17 
     name lclavicle
     direction 0.97203 0.225407 0.06595  
     length 3.34889  
     axis 0 0 0   XYZ
    dof ry rz
    limits (-20.0 10.0)
           (0.0 20.0)
  end
  begin
     id 18 
     name lhumerus
     direction 1 -4.48973e-011 2.20267e-027   
     length 4.85645   
     axis 180 -30 -90   XYZ
    dof rx ry rz
    limits (-60.0 90.0)
           (-90.0 90.0)
           (-90.0 90.0)
  end
  begin
     id 19
     name lradius
     direction 1 -4.4897e-011 4.60472e-027   
     length 2.79874   
     axis 180 -30 -90   XYZ
    dof rx
    limits (-10.0 170.0)
  end
  begin
     id 20
     name lwrist
     direction 1 -4.48952e-011 1.14928e-026   
     length 1.39937   
     axis -6.29373e-015 90 90   XYZ
    dof ry
    limits (-180.0 0.0)
 end
  begin
     id 21 
     name lhand
     direction 1 -4.48967e-011 2.29886e-026   
     length 0.573398   
     axis -1.46689e-014 90 90   XYZ
    dof rx rz
    limits (-90.0 90.0)
           (-45.0 45.0)
  end
  begin
     id 22 
     name lfingers
     direction 1 -4.48955e-011 4.59726e-026   
     length 0.462289   
     axis -2.93383e-014 90 90   XYZ
    dof rx
    limits (0.0 90.0)
  end
  begin
     id 23
     name lthumb
     direction 0.707107 -6.34866e-011 0.707107   
     length 0.663757   
     axis -90 45 5.69224e-014   XYZ
    dof rx rz
    limits (-45.0 45.0)
           (-45.0 45.0)
  end
  begin
     id 24 
     name rclavicle
     direction -0.981571 0.157346 0.108443   
     length 3.35257  
     axis 0 0 0   XYZ 
    dof ry rz
    limits (-10.0 20.0)
           (-20.0 0.0)
  end
  begin
     id 25 
     name rhumerus
     direction -1 -4.48967e-011 8.58308e-029  
     length 4.67018   
     axis 180 30 90   XYZ
    dof rx ry rz
    limits (-90.0 60.0)
           (-90.0 90.0)
           (-90.0 90.0)
  end
  begin
     id 26 
     name rradius
     direction -1 -4.48958e-011 4.52548e-027   
     length 2.65534   
     axis 180 30 90   XYZ
    dof rx
    limits (-10.0 170.0)
  end
  begin
     id 27 
     name rwrist
     direction -1 -4.48977e-011 1.14952e-026   
     length 1.32767   
     axis -6.29373e-015 -90 -90   XYZ
    dof ry
    limits (-180.0 0.0)
  end
  begin
     id 28
     name rhand
     direction -1 -4.48924e-011 2.29804e-026   
     length 0.594069   
     axis -1.46689e-014 -90 -90   XYZ
    dof rx rz
    limits (-90.0 90.0)
           (-45.0 45.0)
  end
  begin
     id 29
     name rfingers
     direction -1 -4.48998e-011 4.59888e-026   
     length 0.478954   
     axis -2.93383e-014 -90 -90   XYZ
    dof rx
    limits (0.0 90.0)
  end
  begin
     id 30
     name rthumb
     direction -0.707107 -6.34933e-011 0.707107   
     length 0.687685   
     axis -90 -45 -5.69224e-014   XYZ
    dof rx rz
    limits (-45.0 45.0)
           (-45.0 45.0)
  end
:hierarchy
  begin
    root lhipjoint rhipjoint lowerback
    lhipjoint lfemur
    lfemur ltibia
    ltibia lfoot
    lfoot ltoes
    rhipjoint rfemur
    rfemur rtibia
    rtibia rfoot
    rfoot rtoes
    lowerback upperback
    upperback thorax
    thorax lowerneck lclavicle rclavicle
    lowerneck upperneck
    upperneck head
    lclavicle lhumerus
    lhumerus lradius
    lradius lwrist
    lwrist lhand lthumb
    lhand lfingers
    rclavicle rhumerus
    rhumerus rradius
    rradius rwrist
    rwrist rhand rthumb
    rhand rfingers
  end

#!OML:ASF E:\pregnant2\Project 1\Capture day 1\Session 1\pregnant2.ASF
:FULLY-SPECIFIED
:DEGREES
1281
root 5.36421 17.2063 -34.3085 -332.098 1.37855 1.9603
lowerback -9.82085 0.663472 -0.450124
upperback -11.6935 0.878313 -1.19141
thorax -6.80544 0.430182 -0.97091
lowerneck -11.286 -2.31151 -4.60055
upperneck 48.9874 -0.84481 -2.41867
head 22.4124 -1.48505 -0.593851
rclavicle -3.80545e-015 8.67198e-015
rhumerus -52.6936 3.12971 -78.318
rradius 37.9507
rwrist 6.81518
rhand -13.2923 -11.6796
rfingers 7.12502
rthumb 12.8114 -41.2664
lclavicle -3.80545e-015 8.67198e-015
lhumerus -52.4295 0.140595 76.937
lradius 45.6046
lwrist -1.4541
lhand -9.11806 24.9442
lfingers 7.12502
lthumb 16.8328 54.2346
rfemur -43.7673 10.1604 20.8408
rtibia 35.5769
rfoot -19.4898 -12.5747
rtoes -22.9177
lfemur -88.5136 -0.2325 -30.1195
ltibia 89.7087
lfoot -16.8927 12.7608
ltoes -20.8624
1282
root 5.37135 17.2036 -34.2809 -332.103 1.20781 2.0009
lowerback -9.74452 0.693524 -0.402103
upperback -11.6674 0.912559 -1.24234
thorax -6.81694 0.4409 -1.05071
lowerneck -11.3999 -2.3872 -4.75266
upperneck 48.8708 -1.06789 -2.12297
head 22.3576 -1.56305 -0.44783
rclavicle 5.49337e-015 9.46712e-015
rhumerus -52.6121 3.02052 -78.2507
rradius 37.9145
rwrist 6.94366
rhand -13.1441 -11.8724
rfingers 7.12502
rthumb 12.9543 -41.4503
lclavicle 5.49337e-015 9.46712e-015
lhumerus -52.4964 0.0211756 76.8714
lradius 45.1937
lwrist -1.42788
lhand -9.19176 24.9641
lfingers 7.12502
lthumb 16.7618 54.2605
rfemur -43.7157 10.1329 20.7915
rtibia 35.6805
rfoot -19.5631 -12.7283
rtoes -22.8194
lfemur -88.8926 -0.487518 -30.0671
ltibia 88.6366
lfoot -17.0806 12.557
ltoes -20.916
1283
root 5.37854 17.2017 -34.25 -332.147 0.995733 2.07122
lowerback -9.73137 0.720627 -0.395188
upperback -11.6194 0.944546 -1.31305
thorax -6.76927 0.45283 -1.12713
lowerneck -11.3735 -2.3885 -4.68853
upperneck 48.7498 -1.12109 -2.09018
head 22.2343 -1.56715 -0.449163
rclavicle -1.13141e-014 4.65902e-016
rhumerus -52.5067 2.95994 -78.2468
rradius 37.8113
rwrist 7.03901
rhand -13.3278 -11.6324
rfingers 7.12502
rthumb 12.7772 -41.2214
lclavicle -1.13141e-014 4.65902e-016
lhumerus -52.5868 -0.0950543 76.7763
lradius 44.8091
lwrist -1.391
lhand -9.18051 25.1199
lfingers 7.12502
lthumb 16.7727 54.4154
rfemur -43.6149 10.1082 20.7116
rtibia 35.7959
rfoot -19.6646 -12.8747
rtoes -22.761
lfemur -89.1504 -0.713715 -30.0402
ltibia 87.4944
lfoot -17.19 12.3938
ltoes -21.3425
1284
root 5.38691 17.1997 -34.215 -332.144 0.832581 2.09192
lowerback -9.77468 0.725055 -0.355885
upperback -11.6116 0.947357 -1.32679
thorax -6.73561 0.450194 -1.16256
lowerneck -11.4355 -2.33462 -4.63923
upperneck 48.707 -1.05181 -2.08884
head 22.2161 -1.53257 -0.44365
rclavicle -9.2826e-016 2.8948e-015
rhumerus -52.4756 3.00098 -78.2292
rradius 37.7519
rwrist 7.07708
rhand -13.3696 -11.4994
rfingers 7.12502
rthumb 12.7369 -41.0909
lclavicle -9.2826e-016 2.8948e-015
lhumerus -52.7438 -0.182156 76.7301
lradius 44.4074
lwrist -1.30955
lhand -9.10979 25.1078
lfingers 7.12502
lthumb 16.8407 54.3975
rfemur -43.4969 10.0091 20.7204
rtibia 35.8504
rfoot -19.7962 -12.9034
rtoes -22.6971
lfemur -89.3995 -0.94909 -29.9409
ltibia 86.3297
lfoot -17.3195 12.2608
ltoes -21.6961
1285
root 5.39516 17.1985 -34.1833 -332.243 0.572525 2.16147
lowerback -9.60928 0.743558 -0.402084
upperback -11.6166 0.969782 -1.35769
thorax -6.83315 0.46261 -1.17111
lowerneck -11.3879 -2.32828 -4.64732
upperneck 48.6329 -1.07005 -2.05164
head 22.1309 -1.53768 -0.422914
rclavicle -7.7511e-015 2.5345e-015
rhumerus -52.2871 3.06113 -78.2536
rradius 37.4853
rwrist 7.17658
rhand -13.4022 -11.5334
rfingers 7.12502
rthumb 12.7054 -41.1269
lclavicle -7.7511e-015 2.5345e-015
lhumerus -52.8908 -0.20925 76.6636
lradius 43.951
lwrist -1.29805
lhand -9.12928 25.1704
lfingers 7.12502
lthumb 16.822 54.4617
rfemur -43.3299 9.9837 20.6423
rtibia 35.9532
rfoot -20.0459 -12.8859
rtoes -22.5772
lfemur -89.4825 -1.11915 -29.869
ltibia 85.1459
lfoot -17.466 12.0134
ltoes -21.9026
1286
root 5.40722 17.2013 -34.1373 -332.532 0.258111 2.1191
lowerback -9.1528 0.743654 -0.233613
upperback -11.6681 0.954672 -1.36682
thorax -7.14278 0.438932 -1.28342
lowerneck -11.4052 -2.28334 -4.69123
upperneck 48.6277 -1.03139 -1.9761
head 22.1336 -1.52705 -0.36738
rclavicle -1.09294e-014 8.7341e-015
rhumerus -52.4231 3.40664 -78.4817
rradius 37.3837
rwrist 7.12202
rhand -13.3234 -12.1722
rfingers 7.12502
rthumb 12.7815 -41.7609
lclavicle -1.09294e-014 8.7341e-015
lhumerus -53.274 -0.130829 76.4701
lradius 43.5438
lwrist -1.25318
lhand -9.07162 25.2793
lfingers 7.12502
lthumb 16.8775 54.5659
rfemur -42.8862 10.0584 20.6727
rtibia 36.0077
rfoot -19.7442 -13.5044
rtoes -22.3563
lfemur -89.2804 -1.14568 -29.6951
ltibia 83.9879
lfoot -17.6606 11.851
ltoes -21.9038
1287
root 5.40983 17.1902 -34.1204 -332.326 0.254876 2.22997
lowerback -9.35756 0.794052 -0.297511
upperback -11.4691 1.02526 -1.46177
thorax -6.80514 0.477141 -1.33848
lowerneck -11.8368 -2.4063 -4.59222
upperneck 48.5248 -1.25017 -1.95746
head 22.2077 -1.58508 -0.426371
rclavicle 2.68956e-016 -4.13255e-015
rhumerus -51.4993 2.90911 -78.279
rradius 36.7734
rwrist 7.32757
rhand -13.4425 -11.8669
rfingers 7.12502
rthumb 12.6666 -41.4627
lclavicle 2.68956e-016 -4.13255e-015
lhumerus -52.6473 -0.282859 76.5073
lradius 42.9229
lwrist -1.30258
lhand -8.96119 25.1419
lfingers 7.12502
lthumb 16.9838 54.4194
rfemur -43.1233 10.05 20.5143
rtibia 36.1109
rfoot -20.0564 -13.2031
rtoes -22.4858
lfemur -89.6967 -1.55254 -29.5122
ltibia 82.7661
lfoot -17.6226 12.0885
ltoes -22.7423
1288
root 5.41925 17.1871 -34.0801 -332.342 0.125128 2.17448
lowerback -9.41888 0.752259 -0.226825
upperback -11.5385 0.966747 -1.40933
thorax -6.84885 0.44367 -1.32489
lowerneck -11.6258 -2.16146 -4.30407
upperneck 48.4928 -0.788948 -2.31199
head 22.0801 -1.40147 -0.57286
rclavicle -5.52503e-015 1.28247e-014
rhumerus -51.3547 3.04792 -78.3246
rradius 36.3706
rwrist 7.47097
rhand -13.4596 -11.8706
rfingers 7.12502
rthumb 12.6501 -41.4675
lclavicle -5.52503e-015 1.28247e-014
lhumerus -52.9549 -0.142884 76.3634
lradius 42.4661
lwrist -1.39545
lhand -8.57383 24.9651
lfingers 7.12502
lthumb 17.3566 54.2101
rfemur -42.974 10.0214 20.5794
rtibia 36.1577
rfoot -20.3486 -12.4763
rtoes -22.9145
lfemur -89.7675 -1.71838 -29.2494
ltibia 81.6182
lfoot -17.7014 11.954
ltoes -23.0263
1289
root 5.42726 17.1845 -34.0439 -332.348 0.00510347 2.17091
lowerback -9.30606 0.72394 -0.193069
upperback -11.639 0.924788 -1.39555
thorax -7.02427 0.419045 -1.33412
lowerneck -10.865 -2.28577 -4.44535
upperneck 48.4094 -1.07956 -2.22354
head 21.5749 -1.5192 -0.58149
rclavicle -3.14374e-015 -7.59109e-015
rhumerus -51.3176 3.12175 -78.3684
rradius 36.109
rwrist 7.60301
rhand -13.5041 -11.9204
rfingers 7.12502
rthumb 12.6072 -41.52
lclavicle -3.14374e-015 -7.59109e-015
lhumerus -53.168 -0.0198944 76.2026
lradius 41.9147
lwrist -1.55034
lhand -8.33351 25.1982
lfingers 7.12502
lthumb 17.5879 54.4227
rfemur -42.871 10.0328 20.5693
rtibia 36.2509
rfoot -20.5042 -12.1426
rtoes -22.9717
lfemur -89.8014 -1.92687 -28.9691
ltibia 80.4595
lfoot -17.669 11.8024
ltoes -23.317
1290
root 5.43657 17.1823 -34.0018 -332.395 -0.221424 2.10053
lowerback -9.43279 0.734206 -0.102224
upperback -11.6413 0.934261 -1.38631
thorax -6.95454 0.416749 -1.37278
lowerneck -10.6896 -2.13625 -4.3031
upperneck 48.3262 -0.907365 -2.20947
head 21.4444 -1.42626 -0.559892
rclavicle -8.39261e-015 1.30802e-014
rhumerus -51.019 3.17152 -78.4317
rradius 35.5563
rwrist 7.79518
rhand -13.5464 -11.8023
rfingers 7.12502
rthumb 12.5665 -41.4043
lclavicle -8.39261e-015 1.30802e-014
lhumerus -53.3318 0.134018 76.0069
lradius 41.4184
lwrist -1.66669
lhand -8.26223 25.058
lfingers 7.12502
lthumb 17.6565 54.2764
rfemur -42.6686 9.96008 20.6747
rtibia 36.2576
rfoot -20.6517 -11.8586
rtoes -23.1659
lfemur -89.7701 -2.01285 -28.6543
ltibia 79.3834
lfoot -17.6 11.6182
ltoes -22.9983
1291
root 5.4451 17.1794 -33.9632 -332.452 -0.276519 2.11433
lowerback -9.32178 0.742769 0.00108622
upperback -11.4923 0.939614 -1.42454
thorax -6.84858 0.410353 -1.4696
lowerneck -11.2461 -2.07802 -4.13521
upperneck 48.2365 -0.802204 -2.27639
head 21.5473 -1.36314 -0.611608
rclavicle -4.21867e-015 6.32073e-015
rhumerus -50.4319 2.98017 -78.4045
rradius 35.1633
rwrist 7.98541
rhand -13.5726 -12.2185
rfingers 7.12502
rthumb 12.5412 -41.8221
lclavicle -4.21867e-015 6.32073e-015
lhumerus -52.9716 0.221239 75.9689
lradius 40.839
lwrist -1.75405
lhand -8.54791 25.48
lfingers 7.12502
lthumb 17.3816 54.7228
rfemur -42.4704 9.99516 20.6416
rtibia 36.2557
rfoot -20.6776 -11.8391
rtoes -23.2896
lfemur -89.68 -2.27063 -28.2954
ltibia 78.2998
lfoot -17.4617 11.4918
ltoes -22.9441
1292
root 5.45429 17.1777 -33.9207 -332.52 -0.41007 2.06191
lowerback -9.27614 0.725456 0.0892392
upperback -11.5305 0.910926 -1.41772
thorax -6.91614 0.388322 -1.51391
lowerneck -11.2228 -2.02826 -4.16108
upperneck 48.1581 -0.785983 -2.14684
head 21.4768 -1.34748 -0.532469
rclavicle -2.4587e-015 -2.45375e-015
rhumerus -50.2255 2.91942 -78.4092
rradius 34.7103
rwrist 8.29099
rhand -13.5298 -11.9408
rfingers 7.12502
rthumb 12.5824 -41.5419
lclavicle -2.4587e-015 -2.45375e-015
lhumerus -53.1166 0.420006 75.7233
lradius 40.2942
lwrist -2.04524
lhand -8.00369 25.265
lfingers 7.12502
lthumb 17.9053 54.4608
rfemur -42.2236 10.0358 20.681
rtibia 36.227
rfoot -20.5522 -13.2521
rtoes -22.3896
lfemur -89.566 -2.42557 -27.8842
ltibia 77.2904
lfoot -17.2958 11.3216
ltoes -22.4856
